HIERARCHY
ROOT hip
{
  OFFSET 5.70873 43.8894 -1.52928
  CHANNELS 6 Xposition Yposition Zposition Zrotation Xrotation Yrotation
  JOINT abdomen
  {
    OFFSET 0 5.99393 0.287273
    CHANNELS 6 Xposition Yposition Zposition Zrotation Xrotation Yrotation
    JOINT chest
    {
      OFFSET 0 6.65865 -0.856112
      CHANNELS 6 Xposition Yposition Zposition Zrotation Xrotation Yrotation
      JOINT neck
      {
        OFFSET 0 8.65624 -1.42685
        CHANNELS 6 Xposition Yposition Zposition Zrotation Xrotation Yrotation
        JOINT head
        {
          OFFSET 0 3.80999 -0.190247
          CHANNELS 6 Xposition Yposition Zposition Zrotation Xrotation Yrotation
          End Site
          {
            OFFSET 0 0 0
          }
        }
      }
      JOINT rCollar
      {
        OFFSET -1.4963 7.5744 -1.52136
        CHANNELS 6 Xposition Yposition Zposition Zrotation Xrotation Yrotation
        JOINT rShldr
        {
          OFFSET -5.47506 -0.905672 0.485692
          CHANNELS 6 Xposition Yposition Zposition Zrotation Xrotation Yrotation
          JOINT rForeArm
          {
            OFFSET -11.3069 -0.201091 0.618544
            CHANNELS 6 Xposition Yposition Zposition Zrotation Xrotation Yrotation
            JOINT rHand
            {
              OFFSET -9.61414 -0.254739 3.48553
              CHANNELS 6 Xposition Yposition Zposition Zrotation Xrotation Yrotation
              JOINT rThumb1
              {
                OFFSET 0.176263 -0.07068 1.26622
                CHANNELS 6 Xposition Yposition Zposition Zrotation Xrotation Yrotation
                JOINT rThumb2
                {
                  OFFSET -1.04683 -0.546484 1.82182
                  CHANNELS 6 Xposition Yposition Zposition Zrotation Xrotation Yrotation
                  JOINT rThumb3
                  {
                    OFFSET -0.993472 -0.621916 0.655506
                    CHANNELS 6 Xposition Yposition Zposition Zrotation Xrotation Yrotation
                    End Site
                    {
                      OFFSET -0.996134 -0.66263 0.644615
                    }
                  }
                }
              }
              JOINT rIndex1
              {
                OFFSET -2.64253 0.566363 2.4162
                CHANNELS 6 Xposition Yposition Zposition Zrotation Xrotation Yrotation
                JOINT rIndex2
                {
                  OFFSET -1.39394 -0.635138 0.899356
                  CHANNELS 6 Xposition Yposition Zposition Zrotation Xrotation Yrotation
                  JOINT rIndex3
                  {
                    OFFSET -0.622395 -0.856016 0.402182
                    CHANNELS 6 Xposition Yposition Zposition Zrotation Xrotation Yrotation
                    End Site
                    {
                      OFFSET -0.472476 -0.801802 0.34216
                    }
                  }
                }
              }
              JOINT rMid1
              {
                OFFSET -3.20814 0.514427 1.52547
                CHANNELS 6 Xposition Yposition Zposition Zrotation Xrotation Yrotation
                JOINT rMid2
                {
                  OFFSET -1.56545 -0.497974 0.68919
                  CHANNELS 6 Xposition Yposition Zposition Zrotation Xrotation Yrotation
                  JOINT rMid3
                  {
                    OFFSET -0.679943 -1.17582 0.444246
                    CHANNELS 6 Xposition Yposition Zposition Zrotation Xrotation Yrotation
                    End Site
                    {
                      OFFSET -0.343874 -0.941341 0.267611
                    }
                  }
                }
              }
              JOINT rRing1
              {
                OFFSET -3.47877 0.200518 0.597719
                CHANNELS 6 Xposition Yposition Zposition Zrotation Xrotation Yrotation
                JOINT rRing2
                {
                  OFFSET -1.28208 -0.53155 0.44672
                  CHANNELS 6 Xposition Yposition Zposition Zrotation Xrotation Yrotation
                  JOINT rRing3
                  {
                    OFFSET -0.710288 -0.970167 0.4032
                    CHANNELS 6 Xposition Yposition Zposition Zrotation Xrotation Yrotation
                    End Site
                    {
                      OFFSET -0.403228 -0.950952 0.378354
                    }
                  }
                }
              }
              JOINT rPinky1
              {
                OFFSET -3.42483 -0.278904 -0.240415
                CHANNELS 6 Xposition Yposition Zposition Zrotation Xrotation Yrotation
                JOINT rPinky2
                {
                  OFFSET -1.05787 -0.635999 0.156459
                  CHANNELS 6 Xposition Yposition Zposition Zrotation Xrotation Yrotation
                  JOINT rPinky3
                  {
                    OFFSET -0.42815 -0.754232 0.287187
                    CHANNELS 6 Xposition Yposition Zposition Zrotation Xrotation Yrotation
                    End Site
                    {
                      OFFSET -0.235717 -0.725605 0.279416
                    }
                  }
                }
              }
            }
          }
        }
      }
      JOINT lCollar
      {
        OFFSET 1.4963 7.5744 -1.52136
        CHANNELS 6 Xposition Yposition Zposition Zrotation Xrotation Yrotation
        JOINT lShldr
        {
          OFFSET 5.47506 -0.905672 0.485692
          CHANNELS 6 Xposition Yposition Zposition Zrotation Xrotation Yrotation
          JOINT lForeArm
          {
            OFFSET 11.3069 -0.201091 0.618544
            CHANNELS 6 Xposition Yposition Zposition Zrotation Xrotation Yrotation
            JOINT lHand
            {
              OFFSET 9.61414 -0.254739 3.48553
              CHANNELS 6 Xposition Yposition Zposition Zrotation Xrotation Yrotation
              JOINT lThumb1
              {
                OFFSET -0.176263 -0.07068 1.26622
                CHANNELS 6 Xposition Yposition Zposition Zrotation Xrotation Yrotation
                JOINT lThumb2
                {
                  OFFSET 1.04683 -0.546484 1.82182
                  CHANNELS 6 Xposition Yposition Zposition Zrotation Xrotation Yrotation
                  JOINT lThumb3
                  {
                    OFFSET 0.993472 -0.621916 0.655506
                    CHANNELS 6 Xposition Yposition Zposition Zrotation Xrotation Yrotation
                    End Site
                    {
                      OFFSET 0.996134 -0.66263 0.644615
                    }
                  }
                }
              }
              JOINT lIndex1
              {
                OFFSET 2.64253 0.566363 2.4162
                CHANNELS 6 Xposition Yposition Zposition Zrotation Xrotation Yrotation
                JOINT lIndex2
                {
                  OFFSET 1.39394 -0.635138 0.899356
                  CHANNELS 6 Xposition Yposition Zposition Zrotation Xrotation Yrotation
                  JOINT lIndex3
                  {
                    OFFSET 0.622395 -0.856016 0.402182
                    CHANNELS 6 Xposition Yposition Zposition Zrotation Xrotation Yrotation
                    End Site
                    {
                      OFFSET 0.472476 -0.801802 0.34216
                    }
                  }
                }
              }
              JOINT lMid1
              {
                OFFSET 3.20814 0.514427 1.52547
                CHANNELS 6 Xposition Yposition Zposition Zrotation Xrotation Yrotation
                JOINT lMid2
                {
                  OFFSET 1.56545 -0.497974 0.68919
                  CHANNELS 6 Xposition Yposition Zposition Zrotation Xrotation Yrotation
                  JOINT lMid3
                  {
                    OFFSET 0.679943 -1.17582 0.444246
                    CHANNELS 6 Xposition Yposition Zposition Zrotation Xrotation Yrotation
                    End Site
                    {
                      OFFSET 0.343874 -0.941341 0.267611
                    }
                  }
                }
              }
              JOINT lRing1
              {
                OFFSET 3.47877 0.200518 0.597719
                CHANNELS 6 Xposition Yposition Zposition Zrotation Xrotation Yrotation
                JOINT lRing2
                {
                  OFFSET 1.28208 -0.53155 0.44672
                  CHANNELS 6 Xposition Yposition Zposition Zrotation Xrotation Yrotation
                  JOINT lRing3
                  {
                    OFFSET 0.710288 -0.970167 0.4032
                    CHANNELS 6 Xposition Yposition Zposition Zrotation Xrotation Yrotation
                    End Site
                    {
                      OFFSET 0.403228 -0.950952 0.378354
                    }
                  }
                }
              }
              JOINT lPinky1
              {
                OFFSET 3.42483 -0.278904 -0.240415
                CHANNELS 6 Xposition Yposition Zposition Zrotation Xrotation Yrotation
                JOINT lPinky2
                {
                  OFFSET 1.05787 -0.635999 0.156459
                  CHANNELS 6 Xposition Yposition Zposition Zrotation Xrotation Yrotation
                  JOINT lPinky3
                  {
                    OFFSET 0.42815 -0.754232 0.287187
                    CHANNELS 6 Xposition Yposition Zposition Zrotation Xrotation Yrotation
                    End Site
                    {
                      OFFSET 0.235717 -0.725605 0.279416
                    }
                  }
                }
              }
            }
          }
        }
      }
    }
  }
  JOINT rThigh
  {
    OFFSET -4.17848 -1.02486 0.046356
    CHANNELS 6 Xposition Yposition Zposition Zrotation Xrotation Yrotation
    JOINT rShin
    {
      OFFSET 1.27155 -17.465 -0.237699
      CHANNELS 6 Xposition Yposition Zposition Zrotation Xrotation Yrotation
      JOINT rFoot
      {
        OFFSET 0.529163 -17.3815 -1.19582
        CHANNELS 6 Xposition Yposition Zposition Zrotation Xrotation Yrotation
        JOINT rToe
        {
          OFFSET -0.711591 -4.4863 4.0596
          CHANNELS 6 Xposition Yposition Zposition Zrotation Xrotation Yrotation
          End Site
          {
            OFFSET -0.869915 -1.10655 1.99006
          }
        }
      }
    }
  }
  JOINT lThigh
  {
    OFFSET 4.17848 -1.02486 0.046356
    CHANNELS 6 Xposition Yposition Zposition Zrotation Xrotation Yrotation
    JOINT lShin
    {
      OFFSET -1.27155 -17.465 -0.237699
      CHANNELS 6 Xposition Yposition Zposition Zrotation Xrotation Yrotation
      JOINT lFoot
      {
        OFFSET -0.529163 -17.3815 -1.19582
        CHANNELS 6 Xposition Yposition Zposition Zrotation Xrotation Yrotation
        JOINT lToe
        {
          OFFSET 0.711591 -4.4863 4.0596
          CHANNELS 6 Xposition Yposition Zposition Zrotation Xrotation Yrotation
          End Site
          {
            OFFSET 0.869915 -1.10655 1.99006
          }
        }
      }
    }
  }
}
MOTION
Frames:	4
Frame Time:	0.0333333
-234.852 202.446 354.022 12.5997 2.73652 -79.1286 -5.68434e-014 5.99393 0.287273 1.00157 4.57138 -2.4803 5.68434e-014 6.65865 -0.856112 2.21192 9.09414 -5.06497 -5.68434e-014 8.65624 -1.42685 0.217482 -21.2078 -5.2748 0 3.80999 -0.190247 0.577145 -11.425 -4.13876 -1.4963 7.5744 -1.52136 -1.7097 -3.74832 -4.47094 -5.47506 -0.905672 0.485692 77.4259 -1.52812 -10.2557 -11.3069 -0.201091 0.618544 8.61098 -6.18106 58.8927 -9.61414 -0.254739 3.48553 -26.6048 -4.57582 7.40873 0.176263 -0.07068 1.26622 9.94919 5.51862 -4.43897 -1.04683 -0.546484 1.82182 -0.761947 0.834828 -2.31968 -0.993472 -0.621916 0.655506 -0.591361 0.641989 -1.79221 -2.64253 0.566363 2.4162 3.29759 2.27675 0.371868 -1.39394 -0.635138 0.899356 4.11875 1.07304 -0.644051 -0.622395 -0.856016 0.402182 4.1844 1.08978 -0.655212 -3.20814 0.514427 1.52547 2.15154 -0.0133261 -1.04868 -1.56545 -0.497974 0.68919 5.28859 1.58418 -0.824525 -0.679943 -1.17582 0.444246 3.56817 1.08512 -0.54589 -3.47877 0.200518 0.597719 1.01879 0.558732 -2.88287 -1.28208 -0.53155 0.44672 4.57518 1.54431 -0.895525 -0.710288 -0.970167 0.4032 2.88454 0.983064 -0.550721 -3.42483 -0.278904 -0.240415 1.19782 1.49335 -4.37536 -1.05787 -0.635999 0.156459 3.46029 1.27635 -0.621371 -0.42815 -0.754232 0.287187 3.32773 1.22843 -0.59644 1.4963 7.5744 -1.52136 5.87469 0.437514 12.3342 5.47506 -0.905672 0.485692 -78.1173 13.6843 -13.9915 11.3069 -0.201091 0.618544 -20.2086 -7.96695 -64.0334 9.61414 -0.254739 3.48553 4.22876 -6.41281 3.61985 -0.176263 -0.07068 1.26622 -14.764 9.52473 22.8652 1.04683 -0.546484 1.82182 11.7194 6.15231 22.2001 0.993472 -0.621916 0.655506 18.914 13.7856 38.8577 2.64253 0.566363 2.4162 -57.7071 1.76865 43.7833 1.39394 -0.635138 0.899356 -47.3558 6.54771 22.1722 0.622395 -0.856016 0.402182 -47.3288 6.54863 22.1592 3.20814 0.514427 1.52547 -49.0068 3.27221 32.9702 1.56545 -0.497974 0.68919 -45.5636 9.73121 31.4424 0.679943 -1.17582 0.444246 -48.6188 8.24039 23.5351 3.47877 0.200518 0.597719 -50.098 5.25162 29.5703 1.28208 -0.53155 0.44672 -45.9881 8.92093 24.7099 0.710288 -0.970167 0.4032 -48.7037 8.79367 26.2589 3.42483 -0.278904 -0.240415 -50.2967 3.97849 28.6366 1.05787 -0.635999 0.156459 -46.0152 10.3431 24.7326 0.42815 -0.754232 0.287187 -48.0028 10.3127 25.8839 -4.17848 -1.02486 0.046356 -2.78749 -54.5718 9.12446 1.27155 -17.465 -0.237699 72.4965 76.1688 -68.4259 0.529163 -17.3815 -1.19582 -19.278 -13.7844 -5.86602 -0.711591 -4.4863 4.0596 0.611477 4.42866 -0.142489 4.17848 -1.02486 0.046356 -6.28608 -37.7477 -1.03114 -1.27155 -17.465 -0.237699 2.01896 50.104 -5.3199 -0.529163 -17.3815 -1.19582 10.8223 -21.8036 -1.8393 0.711591 -4.4863 4.0596 0.0579904 -4.22474 0.213349 
-235.976 202.873 354.053 12.7366 5.17275 -76.9661 0 5.99393 0.287273 2.30895 4.39499 -3.93301 5.68434e-014 6.65865 -0.856112 4.93673 8.61673 -8.07509 5.68434e-014 8.65624 -1.42685 0.206474 -21.937 -4.395 -5.68434e-014 3.80999 -0.190247 0.908248 -11.7015 -2.15082 -1.4963 7.5744 -1.52136 -2.12184 -3.86589 -5.06388 -5.47506 -0.905672 0.485692 74.6855 -3.25762 -12.5791 -11.3069 -0.201091 0.618544 7.21743 -3.79412 57.0772 -9.61414 -0.254739 3.48553 -26.6462 -8.46682 8.16985 0.176263 -0.07068 1.26622 7.97422 7.91499 -2.40913 -1.04683 -0.546484 1.82182 -0.60473 0.65692 -1.83329 -0.993472 -0.621916 0.655506 -0.237144 0.252551 -0.711952 -2.64253 0.566363 2.4162 0.73867 3.29767 1.82213 -1.39394 -0.635138 0.899356 2.6036 0.684125 -0.398344 -0.622395 -0.856016 0.402182 2.748 0.721516 -0.421613 -3.20814 0.514427 1.52547 -1.6369 -1.98753 -1.37271 -1.56545 -0.497974 0.68919 5.22228 1.56486 -0.813301 -0.679943 -1.17582 0.444246 1.43994 0.439422 -0.210336 -3.47877 0.200518 0.597719 -4.08417 -0.955527 -5.19237 -1.28208 -0.53155 0.44672 3.75113 1.27216 -0.72557 -0.710288 -0.970167 0.4032 0.0689481 0.0238618 -0.0126477 -3.42483 -0.278904 -0.240415 -3.69508 0.965471 -8.50746 -1.05787 -0.635999 0.156459 1.36882 0.50992 -0.236827 -0.42815 -0.754232 0.287187 1.10056 0.389848 -0.181944 1.4963 7.5744 -1.52136 7.19274 -0.740701 10.8421 5.47506 -0.905672 0.485692 -79.1813 13.4478 -12.0544 11.3069 -0.201091 0.618544 -21.468 -8.05047 -64.099 9.61414 -0.254739 3.48553 -0.866178 -7.35487 1.2077 -0.176263 -0.07068 1.26622 -12.7837 11.8639 19.8745 1.04683 -0.546484 1.82182 11.032 5.61748 20.7874 0.993472 -0.621916 0.655506 18.2614 12.8941 37.1382 2.64253 0.566363 2.4162 -56.2356 3.60247 44.1941 1.39394 -0.635138 0.899356 -46.7754 6.5831 21.8868 0.622395 -0.856016 0.402182 -46.826 6.57932 21.9119 3.20814 0.514427 1.52547 -44.7427 2.23532 30.5939 1.56545 -0.497974 0.68919 -44.8921 9.74226 31.0981 0.679943 -1.17582 0.444246 -45.906 8.3345 22.1332 3.47877 0.200518 0.597719 -44.1184 3.00748 28.4984 1.28208 -0.53155 0.44672 -44.5796 8.95825 23.905 0.710288 -0.970167 0.4032 -45.2972 8.94166 24.3149 3.42483 -0.278904 -0.240415 -44.1475 0.874655 29.2394 1.05787 -0.635999 0.156459 -43.2922 10.3218 23.1541 0.42815 -0.754232 0.287187 -45.1213 10.3449 24.2136 -4.17848 -1.02486 0.046356 -1.79428 -60.8614 8.84437 1.27155 -17.465 -0.237699 85.09 76.3413 -81.8942 0.529163 -17.3815 -1.19582 -18.139 -22.8857 -8.57507 -0.711591 -4.4863 4.0596 0.969374 6.96949 -0.246104 4.17848 -1.02486 0.046356 -5.05452 -34.9876 -4.07372 -1.27155 -17.465 -0.237699 1.9352 47.4277 -4.76893 -0.529163 -17.3815 -1.19582 10.4649 -21.5564 -2.00296 0.711591 -4.4863 4.0596 0.169413 -5.09728 0.257906 
-237.261 204.386 354.109 13.3073 8.38831 -75.0476 0 5.99393 0.287273 3.78666 3.74267 -5.18748 0 6.65865 -0.856112 7.9206 7.11826 -10.6427 5.68434e-014 8.65624 -1.42685 0.194312 -21.5302 -4.1432 -5.68434e-014 3.80999 -0.190247 0.974519 -11.7217 -0.672769 -1.4963 7.5744 -1.52136 -2.57309 -3.98188 -5.76691 -5.47506 -0.905672 0.485692 71.7243 -4.86539 -15.3866 -11.3069 -0.201091 0.618544 5.80804 -1.13615 55.1669 -9.61414 -0.254739 3.48553 -26.8005 -12.6192 9.17809 0.176263 -0.07068 1.26622 5.54094 10.5501 0.0581042 -1.04683 -0.546484 1.82182 -0.40372 0.433811 -1.21743 -0.993472 -0.621916 0.655506 0.174322 -0.181909 0.518889 -2.64253 0.566363 2.4162 -2.28996 4.4309 3.4706 -1.39394 -0.635138 0.899356 0.860315 0.228239 -0.128136 -0.622395 -0.856016 0.402182 1.09516 0.290165 -0.164032 -3.20814 0.514427 1.52547 -5.99349 -4.32624 -1.83986 -1.56545 -0.497974 0.68919 5.15597 1.5455 -0.802128 -0.679943 -1.17582 0.444246 -0.996463 -0.307501 0.13908 -3.47877 0.200518 0.597719 -10.0454 -2.78073 -8.01426 -1.28208 -0.53155 0.44672 2.81113 0.958402 -0.536345 -0.710288 -0.970167 0.4032 -3.16349 -1.11215 0.547949 -3.42483 -0.278904 -0.240415 -9.4682 0.342684 -13.3635 -1.05787 -0.635999 0.156459 -1.03391 -0.389608 0.1711 -0.42815 -0.754232 0.287187 -1.50162 -0.566716 0.245966 1.4963 7.5744 -1.52136 8.5097 -2.03003 9.26103 5.47506 -0.905672 0.485692 -80.8591 13.2008 -8.86241 11.3069 -0.201091 0.618544 -22.8937 -7.31871 -63.9982 9.61414 -0.254739 3.48553 -6.51564 -7.61068 -2.89576 -0.176263 -0.07068 1.26622 -10.271 14.295 16.2819 1.04683 -0.546484 1.82182 10.2249 5.02262 19.1538 0.993472 -0.621916 0.655506 17.4789 11.8914 35.1518 2.64253 0.566363 2.4162 -54.511 5.6978 44.6413 1.39394 -0.635138 0.899356 -46.1157 6.61981 21.5621 0.622395 -0.856016 0.402182 -46.2465 6.61201 21.6267 3.20814 0.514427 1.52547 -39.9452 0.817789 27.8312 1.56545 -0.497974 0.68919 -44.1185 9.74998 30.7012 0.679943 -1.17582 0.444246 -42.7795 8.36137 20.515 3.47877 0.200518 0.597719 -37.3407 0.0524323 27.2493 1.28208 -0.53155 0.44672 -42.9565 8.97696 22.977 0.710288 -0.970167 0.4032 -41.3695 8.97024 22.0692 3.42483 -0.278904 -0.240415 -37.0134 -2.96532 29.9602 1.05787 -0.635999 0.156459 -40.1584 10.2059 21.3399 0.42815 -0.754232 0.287187 -41.7768 10.2786 22.2756 -4.17848 -1.02486 0.046356 -1.29715 -65.6173 6.93554 1.27155 -17.465 -0.237699 70.2063 76.8007 -66.8688 0.529163 -17.3815 -1.19582 -12.5878 -28.1886 -8.80443 -0.711591 -4.4863 4.0596 1.1465 8.20911 -0.30286 4.17848 -1.02486 0.046356 -2.67925 -32.5863 -7.33745 -1.27155 -17.465 -0.237699 1.19726 41.7651 -3.70775 -0.529163 -17.3815 -1.19582 8.64103 -10.2094 -2.75514 0.711591 -4.4863 4.0596 0.339221 -7.54387 0.398486 
-238.751 206.398 354.149 13.6505 11.5659 -73.4488 0 5.99393 0.287273 5.1485 2.91111 -6.17545 0 6.65865 -0.856112 10.5976 5.23927 -12.6076 -5.68434e-014 8.65624 -1.42685 0.264041 -20.12 -4.04674 -5.68434e-014 3.80999 -0.190247 1.08091 -11.5716 -0.126128 -1.4963 7.5744 -1.52136 -2.96899 -4.06612 -6.48348 -5.47506 -0.905672 0.485692 69.0033 -6.07297 -18.1682 -11.3069 -0.201091 0.618544 4.70204 1.25326 53.6406 -9.61414 -0.254739 3.48553 -27.2117 -16.1497 10.2579 0.176263 -0.07068 1.26622 2.9936 12.9613 2.59899 -1.04683 -0.546484 1.82182 -0.175906 0.186651 -0.527085 -0.993472 -0.621916 0.655506 0.595069 -0.60743 1.7529 -2.64253 0.566363 2.4162 -5.31765 5.48875 5.05146 -1.39394 -0.635138 0.899356 -0.834068 -0.22308 0.121356 -0.622395 -0.856016 0.402182 -0.511768 -0.136645 0.0746152 -3.20814 0.514427 1.52547 -10.2346 -6.66111 -2.39578 -1.56545 -0.497974 0.68919 5.08967 1.52615 -0.790957 -0.679943 -1.17582 0.444246 -3.36339 -1.04799 0.448377 -3.47877 0.200518 0.597719 -15.9427 -4.61441 -10.9413 -1.28208 -0.53155 0.44672 1.89762 0.650224 -0.357135 -0.710288 -0.970167 0.4032 -6.30006 -2.24623 1.03143 -3.42483 -0.278904 -0.240415 -15.2237 -0.240737 -18.1934 -1.05787 -0.635999 0.156459 -3.36644 -1.28065 0.531628 -0.42815 -0.754232 0.287187 -4.00671 -1.51387 0.618862 1.4963 7.5744 -1.52136 9.54017 -3.1298 7.9404 5.47506 -0.905672 0.485692 -82.8896 13.0728 -5.16557 11.3069 -0.201091 0.618544 -23.8697 -6.18195 -63.8228 9.61414 -0.254739 3.48553 -11.1422 -7.158 -8.07493 -0.176263 -0.07068 1.26622 -7.58813 16.3933 12.6328 1.04683 -0.546484 1.82182 9.42409 4.46601 17.5576 0.993472 -0.621916 0.655506 16.6868 10.9419 33.2128 2.64253 0.566363 2.4162 -52.8005 7.71824 45.0495 1.39394 -0.635138 0.899356 -45.4558 6.65282 21.237 0.622395 -0.856016 0.402182 -45.6827 6.64108 21.3491 3.20814 0.514427 1.52547 -35.4064 -0.784524 25.1307 1.56545 -0.497974 0.68919 -43.3657 9.7524 30.3149 0.679943 -1.17582 0.444246 -39.7376 8.30365 18.9412 3.47877 0.200518 0.597719 -30.8792 -3.19984 26.0614 1.28208 -0.53155 0.44672 -41.3769 8.97023 22.0737 0.710288 -0.970167 0.4032 -37.5489 8.85209 19.8868 3.42483 -0.278904 -0.240415 -30.0217 -6.9682 30.7504 1.05787 -0.635999 0.156459 -37.1152 9.99966 19.584 0.42815 -0.754232 0.287187 -38.5781 10.1109 20.4265 -4.17848 -1.02486 0.046356 1.69967 -60.3513 6.41432 1.27155 -17.465 -0.237699 29.7635 65.2706 -25.5883 0.529163 -17.3815 -1.19582 -6.21086 -28.4819 -10.5898 -0.711591 -4.4863 4.0596 1.13507 8.12959 -0.299074 4.17848 -1.02486 0.046356 0.469713 -31.7218 -10.4087 -1.27155 -17.465 -0.237699 0.18482 38.5741 -2.23654 -0.529163 -17.3815 -1.19582 6.00997 7.26511 -3.594 0.711591 -4.4863 4.0596 1.58843 -9.19274 0.595846 
